<svg width="12" height="13" viewBox="0 0 12 13" fill="none" xmlns="http://www.w3.org/2000/svg">
<path d="M5.4345 8.81539C5.4055 8.78714 5.2815 8.68047 5.1795 8.5811C4.538 7.99854 3.488 6.47881 3.1675 5.68339C3.116 5.56259 3.007 5.25718 3 5.09401C3 4.93765 3.036 4.7886 3.109 4.64637C3.211 4.46907 3.3715 4.32684 3.561 4.2489C3.6925 4.19873 4.086 4.1208 4.093 4.1208C4.5235 4.04286 5.223 4 5.996 4C6.7325 4 7.4035 4.04286 7.8405 4.10667C7.8475 4.11398 8.3365 4.19191 8.504 4.27716C8.81 4.43351 9 4.73892 9 5.06576V5.09401C8.9925 5.30687 8.8025 5.75451 8.7955 5.75451C8.4745 6.50706 7.476 7.99172 6.8125 8.58841C6.8125 8.58841 6.642 8.75645 6.5355 8.82952C6.3825 8.9435 6.193 9 6.0035 9C5.792 9 5.595 8.93619 5.4345 8.81539Z" fill="black"/>
</svg>
