<svg width="19" height="18" viewBox="0 0 19 18" fill="none" xmlns="http://www.w3.org/2000/svg">
<path fill-rule="evenodd" clip-rule="evenodd" d="M5.1875 9.75C8.23925 9.75 8.375 10.785 8.375 12.9375C8.375 14.016 8.375 14.7832 7.922 15.345C7.40075 15.9922 6.452 16.125 5.1875 16.125C3.923 16.125 2.97425 15.9922 2.453 15.345C2 14.7832 2 14.0167 2 12.9562L2.5625 12.9375H2C2 10.785 2.13575 9.75 5.1875 9.75ZM13.4375 9.75C16.4893 9.75 16.625 10.785 16.625 12.9375C16.625 14.016 16.625 14.7832 16.172 15.345C15.6508 15.9922 14.702 16.125 13.4375 16.125C12.173 16.125 11.2242 15.9922 10.703 15.345C10.25 14.7832 10.25 14.0167 10.25 12.9562L10.8125 12.9375H10.25C10.25 10.785 10.3857 9.75 13.4375 9.75ZM5.34212 10.8753L5.1875 10.875C3.23077 10.875 3.13042 11.0154 3.12528 12.6578L3.12559 13.2976C3.12915 13.9509 3.15404 14.4227 3.32825 14.64C3.527 14.886 4.11725 15 5.1875 15C6.25775 15 6.848 14.8852 7.04675 14.6392C7.25 14.3865 7.25 13.7865 7.25 12.9555C7.25 11.0803 7.25 10.8842 5.34212 10.8753ZM13.5921 10.8753L13.4375 10.875C11.4808 10.875 11.3804 11.0154 11.3753 12.6578L11.3756 13.2976C11.3791 13.9509 11.404 14.4227 11.5782 14.64C11.777 14.886 12.3673 15 13.4375 15C14.5077 15 15.098 14.8852 15.2968 14.6392C15.5 14.3865 15.5 13.7865 15.5 12.9555C15.5 11.0803 15.5 10.8842 13.5921 10.8753ZM5.1875 1.5C8.23925 1.5 8.375 2.535 8.375 4.6875C8.375 5.766 8.375 6.53325 7.922 7.095C7.40075 7.74225 6.452 7.875 5.1875 7.875C3.923 7.875 2.97425 7.74225 2.453 7.095C2 6.53325 2 5.76675 2 4.70625L2.5625 4.6875H2C2 2.535 2.13575 1.5 5.1875 1.5ZM13.4375 1.5C16.4893 1.5 16.625 2.535 16.625 4.6875C16.625 5.766 16.625 6.53325 16.172 7.095C15.6508 7.74225 14.702 7.875 13.4375 7.875C12.173 7.875 11.2242 7.74225 10.703 7.095C10.25 6.53325 10.25 5.76675 10.25 4.70625L10.8125 4.6875H10.25C10.25 2.535 10.3857 1.5 13.4375 1.5ZM5.34212 2.62533L5.1875 2.625C3.23077 2.625 3.13042 2.76541 3.12528 4.40779L3.12559 5.04764C3.12915 5.70086 3.15404 6.17271 3.32825 6.39C3.527 6.636 4.11725 6.75 5.1875 6.75C6.25775 6.75 6.848 6.63525 7.04675 6.38925C7.25 6.1365 7.25 5.5365 7.25 4.7055C7.25 2.83035 7.25 2.63416 5.34212 2.62533ZM13.5921 2.62533L13.4375 2.625C11.4808 2.625 11.3804 2.76541 11.3753 4.40779L11.3756 5.04764C11.3791 5.70086 11.404 6.17271 11.5782 6.39C11.777 6.636 12.3673 6.75 13.4375 6.75C14.5077 6.75 15.098 6.63525 15.2968 6.38925C15.5 6.1365 15.5 5.5365 15.5 4.7055C15.5 2.83035 15.5 2.63416 13.5921 2.62533Z" fill="black"/>
</svg>
