<svg width="19" height="19" viewBox="0 0 19 19" fill="none" xmlns="http://www.w3.org/2000/svg">
<path fill-rule="evenodd" clip-rule="evenodd" d="M9.11906 2.02754C9.42956 2.02754 9.68156 2.27954 9.68156 2.59004C9.68156 2.90054 9.42956 3.15254 9.11906 3.15254H6.31481C4.37681 3.15254 3.12506 4.48004 3.12506 6.53429V12.7698C3.12506 14.824 4.37681 16.1515 6.31481 16.1515H12.9328C14.8708 16.1515 16.1233 14.824 16.1233 12.7698V9.74879C16.1233 9.43829 16.3753 9.18629 16.6858 9.18629C16.9963 9.18629 17.2483 9.43829 17.2483 9.74879V12.7698C17.2483 15.4653 15.5136 17.2765 12.9328 17.2765H6.31481C3.73406 17.2765 2.00006 15.4653 2.00006 12.7698V6.53429C2.00006 3.83879 3.73406 2.02754 6.31481 2.02754H9.11906ZM15.6513 2.68649L16.564 3.59924C17.0088 4.04324 17.2533 4.63349 17.2525 5.26199C17.2525 5.89049 17.008 6.47999 16.564 6.92324L10.9323 12.555C10.519 12.9682 9.96851 13.1962 9.38351 13.1962H6.57401C6.42251 13.1962 6.27701 13.1347 6.17126 13.026C6.06551 12.918 6.00776 12.7717 6.01151 12.6195L6.08201 9.78524C6.09626 9.22124 6.32351 8.69099 6.72251 8.29124L12.328 2.68649C13.2445 1.77149 14.7348 1.77149 15.6513 2.68649ZM11.8663 4.73849L7.51826 9.08699C7.32401 9.28124 7.21376 9.53924 7.20701 9.81299L7.15076 12.0712H9.38351C9.66851 12.0712 9.93551 11.961 10.1373 11.7592L14.5116 7.38374L11.8663 4.73849ZM13.123 3.48224L12.6613 3.94274L15.3066 6.58874L15.769 6.12749C16 5.89649 16.1275 5.58899 16.1275 5.26199C16.1275 4.93424 16 4.62599 15.769 4.39499L14.8563 3.48224C14.3785 3.00599 13.6015 3.00599 13.123 3.48224Z" fill="black"/>
</svg>
