<svg width="19" height="19" viewBox="0 0 19 19" fill="none" xmlns="http://www.w3.org/2000/svg">
<path fill-rule="evenodd" clip-rule="evenodd" d="M10.9816 2.00024C11.0138 2.00024 11.0454 2.00296 11.0761 2.00816L11.1788 2.00879C11.3318 2.00879 11.478 2.07104 11.5845 2.18129L15.3833 6.13904C15.4838 6.24329 15.5401 6.38354 15.5401 6.52829V13.4028C15.5535 15.2845 14.088 16.822 12.2033 16.8985L6.18904 16.8993H6.10729C4.26983 16.8578 2.79616 15.3717 2.75126 13.5522L2.75104 5.36804C2.79454 3.50729 4.33129 2.00879 6.17854 2.00879L10.8871 2.00816C10.9178 2.00296 10.9494 2.00024 10.9816 2.00024ZM10.419 3.13349L6.18004 3.13379C4.93729 3.13379 3.90529 4.14029 3.87604 5.38154V13.4028C3.84829 14.6875 4.86079 15.7458 6.13279 15.7743H12.1808C13.4325 15.7225 14.424 14.6823 14.4151 13.4073L14.415 7.23749L12.9076 7.23824C11.5351 7.23449 10.4191 6.11549 10.4191 4.74449L10.419 3.13349ZM10.8415 11.4563C11.152 11.4563 11.404 11.7083 11.404 12.0188C11.404 12.3293 11.152 12.5813 10.8415 12.5813H6.79151C6.48101 12.5813 6.22901 12.3293 6.22901 12.0188C6.22901 11.7083 6.48101 11.4563 6.79151 11.4563H10.8415ZM9.30784 8.64232C9.61834 8.64232 9.87034 8.89432 9.87034 9.20482C9.87034 9.51532 9.61834 9.76732 9.30784 9.76732H6.79084C6.48034 9.76732 6.22834 9.51532 6.22834 9.20482C6.22834 8.89432 6.48034 8.64232 6.79084 8.64232H9.30784ZM11.544 3.76424L11.5441 4.74449C11.5441 5.49749 12.1569 6.11099 12.9091 6.11324L13.7985 6.11249L11.544 3.76424Z" fill="black"/>
</svg>
